<?xml version="1.0" encoding="UTF-8" standalone="no"?>
<svg
   xmlns:osb="http://www.openswatchbook.org/uri/2009/osb"
   xmlns:dc="http://purl.org/dc/elements/1.1/"
   xmlns:cc="http://creativecommons.org/ns#"
   xmlns:rdf="http://www.w3.org/1999/02/22-rdf-syntax-ns#"
   xmlns:svg="http://www.w3.org/2000/svg"
   xmlns="http://www.w3.org/2000/svg"
   xmlns:sodipodi="http://sodipodi.sourceforge.net/DTD/sodipodi-0.dtd"
   xmlns:inkscape="http://www.inkscape.org/namespaces/inkscape"
   height="64"
   id="svg7384"
   version="1.1"
   width="64"
   sodipodi:docname="user-bookmarks-symbolic.svg"
   inkscape:version="0.92.3 (2405546, 2018-03-11)">
  <sodipodi:namedview
     pagecolor="#ffffff"
     bordercolor="#666666"
     borderopacity="1"
     objecttolerance="10"
     gridtolerance="10"
     guidetolerance="10"
     inkscape:pageopacity="0"
     inkscape:pageshadow="2"
     inkscape:window-width="2560"
     inkscape:window-height="1378"
     id="namedview18"
     showgrid="false"
     inkscape:zoom="5.2149125"
     inkscape:cx="-18.485034"
     inkscape:cy="16.898633"
     inkscape:window-x="0"
     inkscape:window-y="31"
     inkscape:window-maximized="1"
     inkscape:current-layer="svg7384" />
  <metadata
     id="metadata20854">
    <rdf:RDF>
      <cc:Work
         rdf:about="">
        <dc:title></dc:title>
        <dc:format>image/svg+xml</dc:format>
        <dc:type
           rdf:resource="http://purl.org/dc/dcmitype/StillImage" />
      </cc:Work>
    </rdf:RDF>
  </metadata>
  <defs
     id="defs7386">
    <linearGradient
       id="linearGradient5606"
       osb:paint="solid">
      <stop
         id="stop5608"
         offset="0"
         style="stop-color:#000000;stop-opacity:1;" />
    </linearGradient>
    <linearGradient
       id="linearGradient4526"
       osb:paint="solid">
      <stop
         id="stop4528"
         offset="0"
         style="stop-color:#ffffff;stop-opacity:1;" />
    </linearGradient>
  </defs>
  <g
     id="layer9"
     label="status"
     style="display:inline"
     transform="translate(-613.0002,355)" />
  <g
     id="layer2"
     transform="matrix(3.7038243,0,0,3.7038243,-1375.1381,-218.33222)">
    <path
       d="m 372,61 v 13 h 6 c 0.97522,8e-5 1.60156,0.80078 1.60156,0.80078 l 0.39063,0.51758 0.40039,-0.50977 c 0,0 0.65126,-0.79321 1.61133,-0.80859 H 388 V 61 h -2 v 1 h 1 v 11 h -5.00391 -0.004 c -1.02478,0.0148 -1.62385,0.47752 -1.98828,0.82422 C 379.64034,73.4702 379,73 378,73 h -5 V 62 h 5 c 0.98317,9e-5 1.59961,0.79883 1.59961,0.79883 L 380,63.33398 l 0.40039,-0.53515 c 0,0 0.61643,-0.79883 1.59961,-0.79883 v 7 l 3,-1 v -7 h -3 c -1.03628,0 -1.63476,0.46542 -2,0.82031 C 379.63465,61.4654 379.03597,61 378,61 Z m 3,3 v 1 h 3 v -1 z m 0,2 v 1 h 3 v -1 z m 0,2 v 1 h 3 v -1 z m 0,2 v 1 h 3 v -1 z"
       id="rect4177"
       style="color:#000000;font-style:normal;font-variant:normal;font-weight:normal;font-stretch:normal;font-size:medium;line-height:normal;font-family:sans-serif;font-variant-ligatures:none;font-variant-position:normal;font-variant-caps:normal;font-variant-numeric:normal;font-variant-alternates:normal;font-feature-settings:normal;text-indent:0;text-align:start;text-decoration:none;text-decoration-line:none;text-decoration-style:solid;text-decoration-color:#000000;letter-spacing:normal;word-spacing:normal;text-transform:none;writing-mode:lr-tb;direction:ltr;baseline-shift:baseline;text-anchor:start;white-space:normal;shape-padding:0;clip-rule:nonzero;display:inline;overflow:visible;visibility:visible;opacity:1;isolation:auto;mix-blend-mode:normal;color-interpolation:sRGB;color-interpolation-filters:linearRGB;solid-color:#000000;solid-opacity:1;fill:#808080;fill-opacity:1;fill-rule:nonzero;stroke:none;stroke-width:1;stroke-linecap:butt;stroke-linejoin:miter;stroke-miterlimit:4;stroke-dasharray:none;stroke-dashoffset:0;stroke-opacity:1;marker:none;color-rendering:auto;image-rendering:auto;shape-rendering:auto;text-rendering:auto;enable-background:accumulate"
       inkscape:connector-curvature="0" />
  </g>
  <g
     id="layer4"
     transform="translate(-372,-12)" />
  <g
     id="g1812"
     style="display:inline"
     transform="translate(-372,-12)" />
  <g
     id="g6217"
     transform="translate(-372,-12)" />
  <g
     id="layer3"
     style="display:inline"
     transform="translate(-372,-12)" />
  <g
     id="g1833"
     style="display:inline"
     transform="translate(-372,-12)" />
  <g
     id="layer1"
     transform="translate(-372,-12)" />
</svg>
