<?xml version="1.0" encoding="UTF-8" standalone="no"?>
<svg
   xmlns:osb="http://www.openswatchbook.org/uri/2009/osb"
   xmlns:dc="http://purl.org/dc/elements/1.1/"
   xmlns:cc="http://creativecommons.org/ns#"
   xmlns:rdf="http://www.w3.org/1999/02/22-rdf-syntax-ns#"
   xmlns:svg="http://www.w3.org/2000/svg"
   xmlns="http://www.w3.org/2000/svg"
   xmlns:sodipodi="http://sodipodi.sourceforge.net/DTD/sodipodi-0.dtd"
   xmlns:inkscape="http://www.inkscape.org/namespaces/inkscape"
   height="64.000031"
   id="svg7384"
   version="1.1"
   width="64.000053"
   sodipodi:docname="important.svg"
   inkscape:version="0.92.3 (2405546, 2018-03-11)">
  <sodipodi:namedview
     pagecolor="#ffffff"
     bordercolor="#666666"
     borderopacity="1"
     objecttolerance="10"
     gridtolerance="10"
     guidetolerance="10"
     inkscape:pageopacity="0"
     inkscape:pageshadow="2"
     inkscape:window-width="2560"
     inkscape:window-height="1372"
     id="namedview22"
     showgrid="false"
     inkscape:zoom="7.3749851"
     inkscape:cx="31.023101"
     inkscape:cy="-2.0958294"
     inkscape:window-x="0"
     inkscape:window-y="32"
     inkscape:window-maximized="1"
     inkscape:current-layer="svg7384" />
  <metadata
     id="metadata20854">
    <rdf:RDF>
      <cc:Work
         rdf:about="">
        <dc:title></dc:title>
        <dc:format>image/svg+xml</dc:format>
        <dc:type
           rdf:resource="http://purl.org/dc/dcmitype/StillImage" />
      </cc:Work>
    </rdf:RDF>
  </metadata>
  <defs
     id="defs7386">
    <linearGradient
       id="linearGradient5606"
       osb:paint="solid">
      <stop
         id="stop5608"
         offset="0"
         style="stop-color:#000000;stop-opacity:1;" />
    </linearGradient>
    <linearGradient
       id="linearGradient4526"
       osb:paint="solid">
      <stop
         id="stop4528"
         offset="0"
         style="stop-color:#ffffff;stop-opacity:1;" />
    </linearGradient>
    <linearGradient
       id="linearGradient3600-4"
       osb:paint="gradient">
      <stop
         id="stop3602-7"
         offset="0"
         style="stop-color:#f4f4f4;stop-opacity:1" />
      <stop
         id="stop3604-6"
         offset="1"
         style="stop-color:#dbdbdb;stop-opacity:1" />
    </linearGradient>
  </defs>
  <g
     id="layer9"
     label="status"
     style="display:inline"
     transform="translate(-293.0002,-65.000002)" />
  <g
     id="layer2"
     transform="translate(-52,-432)" />
  <g
     id="layer4"
     transform="translate(-52,-432)" />
  <g
     id="g1812"
     style="display:inline"
     transform="translate(-52,-432)" />
  <g
     id="g6217"
     transform="translate(-52,-432)" />
  <g
     id="layer3"
     style="display:inline"
     transform="translate(-52,-432)" />
  <g
     id="g1833"
     style="display:inline"
     transform="translate(-52,-432)" />
  <g
     id="layer1"
     transform="matrix(3.8813618,0,0,3.8813618,-201.01725,-1862.1046)">
    <path
       d="m 60,480 a 8,8 0 0 0 -8,8 8,8 0 0 0 8,8 8,8 0 0 0 8,-8 8,8 0 0 0 -8,-8 z m 0,1 a 7,7 0 0 1 7,7 7,7 0 0 1 -7,7 7,7 0 0 1 -7,-7 7,7 0 0 1 7,-7 z"
       id="path7389"
       style="display:inline;opacity:1;fill:#808080;fill-opacity:1;stroke:none;stroke-width:4;stroke-linecap:round;stroke-linejoin:round;stroke-miterlimit:4;stroke-dasharray:none;stroke-dashoffset:0;stroke-opacity:1"
       inkscape:connector-curvature="0" />
    <path
       d="m 60.708258,485.66291 q 0,1.1898 -0.08499,2.16714 -0.08499,0.96317 -0.212465,1.92635 h -0.821529 q -0.127479,-0.96318 -0.212465,-1.92635 -0.08499,-0.97734 -0.08499,-2.16714 v -2.66289 h 1.416431 z m 0.240793,6.3881 q 0,0.38244 -0.254958,0.66573 -0.254957,0.28328 -0.694051,0.28328 -0.439093,0 -0.694051,-0.28328 -0.254957,-0.28329 -0.254957,-0.66573 0,-0.38243 0.254957,-0.66572 0.254958,-0.28328 0.694051,-0.28328 0.439094,0 0.694051,0.28328 0.254958,0.28329 0.254958,0.66572 z"
       id="path7434"
       style="font-style:normal;font-variant:normal;font-weight:normal;font-stretch:normal;font-size:medium;line-height:1000%;font-family:Ubuntu;-inkscape-font-specification:Ubuntu;letter-spacing:0px;word-spacing:0px;fill:#808080;fill-opacity:1;stroke:none;stroke-width:2.35333323px;stroke-linecap:butt;stroke-linejoin:miter;stroke-opacity:1"
       inkscape:connector-curvature="0" />
  </g>
</svg>
