<?xml version="1.0" encoding="UTF-8" standalone="no"?>
<svg
   xmlns:dc="http://purl.org/dc/elements/1.1/"
   xmlns:cc="http://creativecommons.org/ns#"
   xmlns:rdf="http://www.w3.org/1999/02/22-rdf-syntax-ns#"
   xmlns:svg="http://www.w3.org/2000/svg"
   xmlns="http://www.w3.org/2000/svg"
   xmlns:sodipodi="http://sodipodi.sourceforge.net/DTD/sodipodi-0.dtd"
   xmlns:inkscape="http://www.inkscape.org/namespaces/inkscape"
   height="64"
   width="64"
   version="1.1"
   id="svg6"
   sodipodi:docname="network.svg"
   inkscape:version="0.92.3 (2405546, 2018-03-11)">
  <metadata
     id="metadata12">
    <rdf:RDF>
      <cc:Work
         rdf:about="">
        <dc:format>image/svg+xml</dc:format>
        <dc:type
           rdf:resource="http://purl.org/dc/dcmitype/StillImage" />
        <dc:title></dc:title>
      </cc:Work>
    </rdf:RDF>
  </metadata>
  <defs
     id="defs10" />
  <sodipodi:namedview
     pagecolor="#ffffff"
     bordercolor="#666666"
     borderopacity="1"
     objecttolerance="10"
     gridtolerance="10"
     guidetolerance="10"
     inkscape:pageopacity="0"
     inkscape:pageshadow="2"
     inkscape:window-width="2560"
     inkscape:window-height="1372"
     id="namedview8"
     showgrid="false"
     inkscape:zoom="5.2149125"
     inkscape:cx="49.979553"
     inkscape:cy="13.288703"
     inkscape:window-x="0"
     inkscape:window-y="32"
     inkscape:window-maximized="1"
     inkscape:current-layer="svg6" />
  <g
     transform="matrix(3.7565179,0,0,3.7565179,-1996.3582,-193.16904)"
     id="g4"
     style="color:#000000">
    <path
       d="m 540,52 c -4.414,0 -8,3.586 -8,8 0,4.414 3.586,8 8,8 4.414,0 8,-3.586 8,-8 0,-4.414 -3.586,-8 -8,-8 z m -0.04,1.002 -0.02,0.617 0.915,0.137 0.618,-0.598 a 6.932,6.932 0 0 1 1.732,0.625 l -0.215,0.346 0.61,0.54 -0.61,0.51 0.238,0.61 1.356,-0.644 0.848,0.644 0.044,-0.139 c 0.184,0.232 0.35,0.477 0.504,0.73 l -0.855,0.155 -0.508,-0.543 -1.558,0.102 -0.95,1.492 0.645,1.592 2.101,0.644 0.407,2.475 0.507,1.287 0.358,-0.203 A 7.002,7.002 0 0 1 540,67 c -3.862,0 -7,-3.138 -7,-7 0,-0.812 0.145,-1.589 0.4,-2.314 l 0.034,0.136 1.084,0.305 1.423,1.05 0.034,1.526 0.916,1.254 0.54,3.39 0.983,0.61 -0.27,-1.254 1.66,-2.305 0.712,-1.558 -1.66,-1.56 -1.797,-0.846 -0.745,0.439 -0.882,-1.322 -0.508,0.238 -0.44,-0.746 0.78,-0.406 0.744,0.44 1.289,-1.593 1.863,-1.152 -0.508,-0.95 -1.525,0.544 -0.19,-0.211 a 6.947,6.947 0 0 1 3.024,-0.713 z"
       font-weight="400"
       overflow="visible"
       style="font-weight:400;line-height:normal;font-family:sans-serif;font-variant-ligatures:normal;font-variant-position:normal;font-variant-caps:normal;font-variant-numeric:normal;font-variant-alternates:normal;font-feature-settings:normal;text-indent:0;text-align:start;text-decoration:none;text-decoration-line:none;text-decoration-style:solid;text-decoration-color:#000000;text-transform:none;white-space:normal;shape-padding:0;overflow:visible;isolation:auto;mix-blend-mode:normal;fill:#808080;marker:none"
       id="path2"
       inkscape:connector-curvature="0" />
  </g>
</svg>
