<?xml version="1.0" encoding="UTF-8" standalone="no"?>
<svg
   xmlns:dc="http://purl.org/dc/elements/1.1/"
   xmlns:cc="http://creativecommons.org/ns#"
   xmlns:rdf="http://www.w3.org/1999/02/22-rdf-syntax-ns#"
   xmlns:svg="http://www.w3.org/2000/svg"
   xmlns="http://www.w3.org/2000/svg"
   xmlns:sodipodi="http://sodipodi.sourceforge.net/DTD/sodipodi-0.dtd"
   xmlns:inkscape="http://www.inkscape.org/namespaces/inkscape"
   height="64"
   width="64"
   version="1.1"
   id="svg8"
   sodipodi:docname="help.svg"
   inkscape:version="0.92.3 (2405546, 2018-03-11)">
  <metadata
     id="metadata14">
    <rdf:RDF>
      <cc:Work
         rdf:about="">
        <dc:format>image/svg+xml</dc:format>
        <dc:type
           rdf:resource="http://purl.org/dc/dcmitype/StillImage" />
        <dc:title></dc:title>
      </cc:Work>
    </rdf:RDF>
  </metadata>
  <defs
     id="defs12" />
  <sodipodi:namedview
     pagecolor="#ffffff"
     bordercolor="#666666"
     borderopacity="1"
     objecttolerance="10"
     gridtolerance="10"
     guidetolerance="10"
     inkscape:pageopacity="0"
     inkscape:pageshadow="2"
     inkscape:window-width="1375"
     inkscape:window-height="785"
     id="namedview10"
     showgrid="false"
     units="px"
     width="64mm"
     inkscape:zoom="5.2149125"
     inkscape:cx="28.006388"
     inkscape:cy="34.432979"
     inkscape:window-x="0"
     inkscape:window-y="32"
     inkscape:window-maximized="0"
     inkscape:current-layer="svg8" />
  <g
     transform="matrix(3.8044574,0,0,3.8044574,-2250.7048,-683.39946)"
     id="g6">
    <path
       d="m 600,180 a 8,8 0 0 0 -8,8 8,8 0 0 0 8,8 8,8 0 0 0 8,-8 8,8 0 0 0 -8,-8 z m 0,1 a 7,7 0 0 1 7,7 7,7 0 0 1 -7,7 7,7 0 0 1 -7,-7 7,7 0 0 1 7,-7 z"
       id="path2"
       inkscape:connector-curvature="0"
       style="fill:#808080" />
    <path
       d="m 600.226,183.001 c -0.444,0 -0.864,0.051 -1.26,0.153 -0.36,0.094 -0.679,0.222 -0.973,0.371 l 0.3,0.832 c 0.574,-0.291 1.162,-0.45 1.764,-0.45 0.506,0 0.907,0.133 1.184,0.41 0.272,0.262 0.41,0.613 0.41,1.03 0,0.259 -0.06,0.501 -0.18,0.723 -0.108,0.214 -0.25,0.419 -0.424,0.613 -0.17,0.19 -0.35,0.379 -0.54,0.568 v 0.001 h -0.002 c -0.185,0.176 -0.36,0.37 -0.527,0.583 l -10e-4,0.002 c -0.164,0.2 -0.3,0.418 -0.41,0.655 -0.097,0.231 -0.147,0.49 -0.147,0.779 0,0.174 0.02,0.336 0.047,0.495 h 0.906 c 0,-0.02 -0.005,-0.037 -0.005,-0.057 v -0.155 c 0,-0.323 0.064,-0.617 0.193,-0.876 0.126,-0.26 0.28,-0.498 0.465,-0.712 l 0.001,-0.002 c 0.182,-0.22 0.382,-0.43 0.601,-0.63 0.214,-0.194 0.408,-0.398 0.584,-0.61 0.174,-0.211 0.32,-0.436 0.439,-0.673 0.115,-0.24 0.174,-0.511 0.174,-0.819 0,-0.243 -0.04,-0.497 -0.123,-0.762 v -0.004 a 1.703,1.703 0 0 0 -0.402,-0.721 2.161,2.161 0 0 0 -0.797,-0.526 h -0.002 l -0.002,-0.002 C 601.177,183.075 600.753,183 600.225,183 Z M 600,191.304 c -0.27,0 -0.468,0.082 -0.619,0.25 a 0.854,0.854 0 0 0 -0.229,0.598 c 0,0.232 0.075,0.426 0.23,0.598 0.15,0.168 0.347,0.25 0.618,0.25 0.27,0 0.468,-0.082 0.62,-0.25 a 0.855,0.855 0 0 0 0.228,-0.598 0.854,0.854 0 0 0 -0.229,-0.598 c -0.15,-0.168 -0.348,-0.25 -0.619,-0.25 z"
       font-size="72.036"
       font-weight="500"
       letter-spacing="0"
       style="font-weight:500;font-size:72.03600311px;line-height:125%;font-family:Ubuntu;-inkscape-font-specification:'Ubuntu Medium';text-align:center;letter-spacing:0;word-spacing:0;text-anchor:middle;fill:#808080"
       word-spacing="0"
       id="path4"
       inkscape:connector-curvature="0" />
  </g>
</svg>
