<?xml version="1.0" encoding="UTF-8" standalone="no"?>
<svg
   xmlns:dc="http://purl.org/dc/elements/1.1/"
   xmlns:cc="http://creativecommons.org/ns#"
   xmlns:rdf="http://www.w3.org/1999/02/22-rdf-syntax-ns#"
   xmlns:svg="http://www.w3.org/2000/svg"
   xmlns="http://www.w3.org/2000/svg"
   xmlns:sodipodi="http://sodipodi.sourceforge.net/DTD/sodipodi-0.dtd"
   xmlns:inkscape="http://www.inkscape.org/namespaces/inkscape"
   viewBox="0 0 26 26"
   version="1.1"
   width="100px"
   height="100px"
   id="svg5"
   sodipodi:docname="icons8-school.svg"
   inkscape:version="0.92.3 (2405546, 2018-03-11)">
  <metadata
     id="metadata11">
    <rdf:RDF>
      <cc:Work
         rdf:about="">
        <dc:format>image/svg+xml</dc:format>
        <dc:type
           rdf:resource="http://purl.org/dc/dcmitype/StillImage" />
      </cc:Work>
    </rdf:RDF>
  </metadata>
  <defs
     id="defs9" />
  <sodipodi:namedview
     pagecolor="#ffffff"
     bordercolor="#666666"
     borderopacity="1"
     objecttolerance="10"
     gridtolerance="10"
     guidetolerance="10"
     inkscape:pageopacity="0"
     inkscape:pageshadow="2"
     inkscape:window-width="2560"
     inkscape:window-height="1372"
     id="namedview7"
     showgrid="false"
     inkscape:zoom="6.675088"
     inkscape:cx="40.203144"
     inkscape:cy="66.32773"
     inkscape:window-x="0"
     inkscape:window-y="32"
     inkscape:window-maximized="1"
     inkscape:current-layer="svg5" />
  <g
     id="surface1"
     style="fill:#808080;fill-opacity:1;stroke:none;stroke-opacity:1">
    <path
       style="fill:#808080;fill-opacity:1;stroke:none;stroke-opacity:1"
       d="M 12.875 0 C 12.765625 0.015625 12.660156 0.046875 12.5625 0.09375 L 0.5625 6.09375 C 0.0625 6.335938 -0.148438 6.9375 0.09375 7.4375 C 0.335938 7.9375 0.9375 8.148438 1.4375 7.90625 L 13 2.125 L 24.5625 7.90625 C 25.0625 8.148438 25.664063 7.9375 25.90625 7.4375 C 26.148438 6.9375 25.9375 6.335938 25.4375 6.09375 L 13.4375 0.09375 C 13.261719 0.0078125 13.066406 -0.0234375 12.875 0 Z M 6.9375 8 C 4.792969 8 3.144531 8.535156 2.03125 9.09375 C 0.917969 9.652344 0.28125 10.28125 0.28125 10.28125 C 0.09375 10.472656 -0.0078125 10.734375 0 11 L 0 22.8125 C -0.0078125 22.875 -0.0078125 22.9375 0 23 L 0 24 C 0 24.03125 0 24.0625 0 24.09375 C 0.00390625 24.15625 0.015625 24.21875 0.03125 24.28125 C 0.0546875 24.347656 0.0859375 24.410156 0.125 24.46875 C 0.160156 24.535156 0.203125 24.597656 0.25 24.65625 C 0.257813 24.675781 0.269531 24.699219 0.28125 24.71875 C 0.292969 24.71875 0.300781 24.71875 0.3125 24.71875 C 0.351563 24.765625 0.390625 24.804688 0.4375 24.84375 C 0.449219 24.84375 0.457031 24.84375 0.46875 24.84375 C 0.574219 24.917969 0.6875 24.96875 0.8125 25 C 0.824219 25 0.832031 25 0.84375 25 C 0.96875 25.023438 1.09375 25.023438 1.21875 25 L 10.65625 25 C 10.792969 25.121094 10.835938 25.175781 11.09375 25.34375 C 11.554688 25.648438 12.167969 26 13 26 C 13.832031 26 14.445313 25.648438 14.90625 25.34375 C 15.164063 25.175781 15.207031 25.121094 15.34375 25 L 24.8125 25 C 24.96875 25.027344 25.128906 25.015625 25.28125 24.96875 C 25.421875 24.925781 25.546875 24.847656 25.65625 24.75 C 25.699219 24.722656 25.742188 24.691406 25.78125 24.65625 C 25.78125 24.644531 25.78125 24.636719 25.78125 24.625 C 25.804688 24.605469 25.824219 24.585938 25.84375 24.5625 C 25.84375 24.550781 25.84375 24.542969 25.84375 24.53125 C 25.855469 24.519531 25.863281 24.511719 25.875 24.5 C 25.875 24.488281 25.875 24.480469 25.875 24.46875 C 25.898438 24.4375 25.917969 24.40625 25.9375 24.375 C 25.964844 24.304688 25.988281 24.230469 26 24.15625 C 26 24.136719 26 24.113281 26 24.09375 C 26 24.082031 26 24.074219 26 24.0625 C 26 24.042969 26 24.019531 26 24 L 26 23 C 26 22.96875 26 22.9375 26 22.90625 L 26 11 C 26.007813 10.734375 25.90625 10.472656 25.71875 10.28125 C 25.71875 10.28125 25.082031 9.652344 23.96875 9.09375 C 22.855469 8.535156 21.207031 8 19.0625 8 C 16.078125 8 14 9.109375 13 9.78125 C 12 9.109375 9.921875 8 6.9375 8 Z M 6.9375 10 C 10.128906 10 11.640625 11.21875 12 11.53125 L 12 22 L 11.71875 22 C 10.605469 21.476563 9.039063 21 7 21 C 4.960938 21 3.394531 21.476563 2.28125 22 L 2 22 L 2 11.53125 C 2.132813 11.410156 2.265625 11.246094 2.9375 10.90625 C 3.8125 10.464844 5.128906 10 6.9375 10 Z M 19.0625 10 C 20.871094 10 22.1875 10.464844 23.0625 10.90625 C 23.734375 11.246094 23.867188 11.410156 24 11.53125 L 24 22 L 23.71875 22 C 22.605469 21.476563 21.039063 21 19 21 C 16.960938 21 15.394531 21.476563 14.28125 22 L 14 22 L 14 11.53125 C 14.359375 11.21875 15.871094 10 19.0625 10 Z "
       id="path2" />
  </g>
</svg>
